<svg xmlns="http://www.w3.org/2000/svg" xmlns:xlink="http://www.w3.org/1999/xlink" width="880" height="519" viewBox="0 0 880 519" role="img" aria-labelledby="t d"><title id="t">Scrapy: web-data operations</title><desc id="d">Turn web sources into owned artifacts and versioned datasets. Collect web content reliably and keep what was collected: the files, the records, and the evidence of how they were produced. Workflow: Choose a cataloged source, then Pass the policy and egress gate, then Crawl, fetch, or render, then Classify and store artifacts, then Publish a dataset version, then Search and fetch records.</desc><defs><path id="g0" d="M96 0L96 -687L463 -687Q590 -687 680 -648Q771 -608 819 -531Q868 -455 868 -343Q868 -232 819 -156Q771 -79 680 -40Q590 0 463 0L96 0ZM252 -129L455 -129Q510 -129 555 -142Q601 -155 635 -180Q669 -205 688 -244Q707 -282 707 -332L707 -355Q707 -405 688 -444Q669 -482 635 -507Q601 -532 555 -545Q510 -558 455 -558L252 -558L252 -129Z"/><path id="g1" d="M23 0L367 -687L543 -687L887 0L715 0L651 -131L248 -131L184 0L23 0ZM308 -256L591 -256L512 -422Q507 -433 498 -454Q489 -475 479 -497Q470 -520 463 -536Q455 -553 454 -554L446 -554Q437 -534 426 -509Q414 -483 404 -459Q394 -435 387 -421L308 -256Z"/><path id="g2" d="M330 0L330 -551L26 -551L26 -687L791 -687L791 -551L486 -551L486 0L330 0Z"/><path id="g4" d="M124 -260L124 -419L294 -419L294 -260L124 -260Z"/><path id="g5" d="M243 0L12 -687L180 -687L316 -251Q320 -240 325 -223Q329 -205 334 -186Q339 -167 342 -152L348 -152Q350 -164 354 -178Q357 -192 360 -206Q363 -220 366 -232Q369 -244 371 -251L497 -687L710 -687L837 -251Q840 -241 844 -223Q849 -205 853 -186Q858 -167 860 -152L866 -152Q869 -163 872 -177Q876 -190 880 -204Q884 -218 887 -230Q890 -242 893 -251L1029 -687L1182 -687L949 0L759 0L624 -447Q620 -461 615 -480Q610 -498 606 -517Q603 -535 601 -549L596 -549Q594 -534 589 -514Q584 -495 579 -477Q575 -459 571 -447L440 0L243 0Z"/><path id="g6" d="M96 0L96 -687L793 -687L793 -558L252 -558L252 -414L732 -414L732 -285L252 -285L252 -129L801 -129L801 0L96 0Z"/><path id="g7" d="M96 0L96 -687L630 -687Q685 -687 728 -666Q772 -644 797 -606Q822 -568 822 -517Q822 -478 807 -446Q792 -414 767 -392Q741 -371 709 -360L709 -356Q747 -348 777 -326Q807 -303 824 -269Q841 -234 841 -189Q841 -125 813 -83Q784 -41 737 -21Q689 0 630 0L96 0ZM252 -128L596 -128Q633 -128 657 -147Q681 -166 681 -207Q681 -230 671 -249Q661 -267 641 -277Q621 -287 590 -287L252 -287L252 -128ZM252 -411L578 -411Q606 -411 624 -421Q643 -430 653 -447Q663 -464 663 -484Q663 -521 641 -540Q619 -559 584 -559L252 -559L252 -411Z"/><path id="g8" d="M50 -208L50 -340L366 -340L366 -208L50 -208Z"/><path id="g9" d="M508 12Q372 12 273 -30Q173 -71 120 -151Q66 -230 66 -344Q66 -458 120 -537Q173 -616 273 -658Q372 -699 508 -699Q646 -699 745 -658Q844 -616 898 -537Q952 -458 952 -344Q952 -230 898 -151Q844 -71 745 -30Q646 12 508 12ZM509 -117Q570 -117 622 -131Q673 -145 711 -172Q749 -198 770 -239Q791 -280 791 -333L791 -356Q791 -409 770 -449Q749 -490 711 -516Q673 -543 622 -557Q570 -570 509 -570Q447 -570 396 -557Q345 -543 307 -516Q269 -490 248 -449Q227 -409 227 -356L227 -333Q227 -280 248 -239Q269 -198 307 -172Q345 -145 396 -131Q447 -117 509 -117Z"/><path id="g10" d="M96 0L96 -687L602 -687Q669 -687 719 -658Q768 -629 796 -578Q824 -528 824 -461Q824 -396 795 -344Q767 -293 717 -264Q666 -235 598 -235L252 -235L252 0L96 0ZM252 -364L555 -364Q608 -364 637 -389Q666 -415 666 -460Q666 -491 653 -513Q640 -535 615 -546Q591 -558 555 -558L252 -558L252 -364Z"/><path id="g11" d="M96 0L96 -687L642 -687Q715 -687 762 -657Q809 -628 832 -579Q855 -531 855 -471Q855 -410 824 -357Q792 -303 727 -273L872 0L696 0L571 -244L252 -244L252 0L96 0ZM252 -372L598 -372Q644 -372 670 -399Q695 -426 695 -468Q695 -497 684 -517Q673 -537 651 -548Q630 -558 598 -558L252 -558L252 -372Z"/><path id="g12" d="M96 0L96 -687L252 -687L252 0L96 0Z"/><path id="g13" d="M96 0L96 -687L242 -687L617 -329Q629 -319 647 -300Q665 -281 684 -262Q703 -242 717 -226L725 -226Q724 -248 723 -279Q721 -310 721 -330L721 -687L871 -687L871 0L728 0L353 -361Q326 -387 297 -418Q268 -449 250 -467L243 -467Q244 -454 245 -422Q246 -390 246 -349L246 0L96 0Z"/><path id="g14" d="M434 12Q355 12 287 2Q218 -7 167 -32Q116 -56 87 -100Q58 -144 58 -213Q58 -215 58 -218Q58 -221 59 -223L213 -223Q212 -219 212 -214Q211 -209 211 -202Q211 -171 238 -151Q265 -132 314 -123Q363 -114 430 -114Q458 -114 487 -117Q516 -119 543 -124Q570 -129 591 -138Q612 -147 625 -160Q637 -173 637 -191Q637 -217 613 -232Q590 -247 550 -257Q510 -267 460 -274Q410 -281 357 -289Q304 -298 254 -312Q204 -327 164 -350Q124 -373 100 -409Q77 -446 77 -499Q77 -548 100 -585Q124 -622 169 -648Q215 -673 280 -686Q346 -699 431 -699Q516 -699 580 -685Q645 -671 687 -645Q730 -619 750 -583Q771 -546 771 -500L771 -485L619 -485L619 -497Q619 -519 596 -536Q572 -553 532 -563Q491 -573 440 -573Q369 -573 324 -564Q280 -555 259 -540Q238 -525 238 -506Q238 -483 262 -469Q285 -456 325 -447Q365 -439 415 -432Q465 -425 518 -416Q572 -407 622 -393Q671 -379 711 -356Q751 -332 775 -297Q798 -261 798 -209Q798 -129 752 -80Q706 -31 624 -10Q542 12 434 12Z"/><path id="g15" d="M432 12Q355 12 287 3Q220 -7 169 -31Q118 -55 89 -99Q61 -142 61 -210Q61 -213 61 -216Q61 -220 62 -222L203 -222Q202 -217 201 -212Q201 -206 201 -198Q201 -166 228 -146Q256 -125 308 -115Q359 -106 429 -106Q459 -106 490 -108Q521 -111 549 -117Q577 -122 599 -132Q621 -142 633 -156Q646 -171 646 -190Q646 -218 622 -234Q599 -251 558 -261Q518 -272 467 -279Q417 -286 363 -295Q309 -303 259 -318Q208 -332 168 -355Q128 -377 104 -413Q80 -449 80 -502Q80 -549 102 -585Q125 -622 169 -647Q213 -673 279 -686Q344 -699 430 -699Q517 -699 581 -685Q645 -670 686 -644Q727 -618 747 -582Q766 -546 766 -503L766 -486L627 -486L627 -501Q627 -524 603 -542Q578 -560 536 -570Q494 -581 439 -581Q365 -581 318 -572Q272 -562 250 -546Q228 -529 228 -508Q228 -483 251 -468Q275 -454 315 -444Q356 -435 406 -428Q457 -421 511 -412Q564 -403 615 -389Q665 -375 706 -352Q746 -329 770 -293Q793 -258 793 -206Q793 -127 748 -79Q702 -30 621 -9Q539 12 432 12Z"/><path id="g16" d="M370 12Q269 12 197 -19Q126 -49 89 -111Q51 -172 51 -264Q51 -356 89 -417Q126 -478 197 -508Q269 -539 370 -539Q432 -539 486 -525Q540 -512 581 -485Q621 -457 644 -417Q666 -377 666 -323L536 -323Q536 -361 513 -387Q490 -412 452 -425Q414 -438 370 -438Q313 -438 272 -420Q230 -401 208 -365Q186 -329 186 -274L186 -254Q186 -200 209 -163Q231 -127 274 -108Q316 -89 374 -89Q418 -89 456 -103Q493 -117 517 -143Q540 -168 540 -205L666 -205Q666 -150 643 -109Q620 -69 580 -42Q540 -15 486 -1Q432 12 370 12Z"/><path id="g17" d="M72 0L72 -527L176 -527L186 -433L194 -433Q204 -460 224 -484Q245 -509 276 -524Q308 -539 349 -539Q366 -539 384 -536Q401 -534 415 -529L415 -416L349 -416Q308 -416 280 -402Q252 -387 235 -363Q218 -340 210 -311Q202 -283 202 -254L202 0L72 0Z"/><path id="g18" d="M270 12Q224 12 183 4Q143 -3 113 -21Q83 -38 66 -68Q49 -97 49 -142Q49 -206 84 -242Q119 -278 183 -294Q247 -310 333 -314Q418 -318 518 -318L518 -341Q518 -378 501 -399Q485 -420 449 -429Q414 -438 356 -438Q308 -438 273 -431Q239 -424 220 -412Q201 -399 201 -380L201 -366L71 -366Q70 -370 70 -375Q69 -379 69 -384Q69 -431 103 -466Q136 -500 202 -520Q268 -539 367 -539Q459 -539 521 -522Q584 -505 616 -466Q648 -427 648 -360L648 -128Q648 -109 655 -99Q662 -89 682 -89L732 -89L732 -5Q721 0 696 6Q670 12 640 12Q597 12 574 1Q550 -11 540 -30Q530 -49 527 -73L519 -73Q491 -46 452 -27Q412 -7 366 2Q320 12 270 12ZM301 -89Q335 -89 372 -97Q410 -104 443 -119Q477 -133 497 -154Q518 -176 518 -204L518 -234Q404 -234 328 -226Q253 -219 216 -200Q179 -181 179 -146Q179 -122 197 -110Q215 -98 243 -94Q271 -89 301 -89Z"/><path id="g19" d="M72 186L72 -527L176 -527L188 -444L196 -444Q232 -495 285 -517Q338 -539 402 -539Q485 -539 545 -509Q605 -479 638 -418Q671 -357 671 -264Q671 -171 639 -110Q606 -48 548 -18Q490 12 411 12Q369 12 331 3Q293 -6 262 -24Q231 -42 209 -68L202 -68L202 186L72 186ZM373 -97Q425 -97 462 -115Q498 -134 519 -169Q539 -204 539 -256L539 -271Q539 -323 518 -359Q498 -394 460 -412Q423 -430 371 -430Q319 -430 281 -411Q242 -393 222 -357Q201 -322 201 -268L201 -259Q201 -220 213 -189Q225 -159 247 -138Q270 -118 302 -108Q333 -97 373 -97Z"/><path id="g20" d="M137 196Q111 196 88 192Q66 188 46 181L46 95L113 95Q159 95 187 85Q214 74 231 53Q248 32 264 0L5 -527L147 -527L265 -268Q274 -250 285 -223Q297 -196 309 -168Q322 -141 331 -120L339 -120Q340 -122 345 -138Q351 -155 361 -178Q370 -202 380 -227Q390 -252 398 -272L502 -527L638 -527L423 -43Q396 14 372 59Q347 103 316 134Q285 165 241 181Q198 196 137 196Z"/><path id="g21" d="M252 0L252 -596L20 -596L20 -686L588 -686L588 -596L355 -596L355 0L252 0Z"/><path id="g22" d="M232 12Q156 12 110 -28Q63 -67 63 -165L63 -526L159 -526L159 -179Q159 -147 167 -127Q175 -107 189 -95Q203 -83 223 -78Q243 -73 267 -73Q303 -73 334 -90Q365 -108 384 -141Q403 -174 403 -218L403 -526L499 -526L499 0L422 0L413 -77L406 -77Q386 -47 360 -27Q334 -7 302 2Q269 12 232 12Z"/><path id="g23" d="M68 0L68 -526L147 -526L155 -440L162 -440Q170 -465 184 -487Q198 -509 222 -524Q246 -538 281 -538Q296 -538 308 -535Q321 -533 327 -530L327 -441L294 -441Q260 -441 236 -430Q211 -419 195 -399Q179 -378 171 -350Q164 -322 164 -288L164 0L68 0Z"/><path id="g24" d="M68 0L68 -526L146 -526L155 -449L162 -449Q182 -479 208 -499Q234 -519 267 -528Q299 -538 336 -538Q386 -538 424 -521Q462 -504 483 -465Q505 -427 505 -361L505 0L408 0L408 -347Q408 -379 400 -399Q393 -419 378 -431Q364 -443 344 -448Q324 -453 300 -453Q264 -453 233 -436Q201 -418 183 -386Q164 -353 164 -308L164 0L68 0Z"/><path id="g26" d="M167 0L9 -526L108 -526L187 -238Q193 -216 198 -193Q203 -169 208 -150Q213 -131 215 -122L221 -122Q225 -140 230 -164Q235 -187 239 -208Q244 -229 246 -239L317 -526L421 -526L493 -239Q497 -223 502 -201Q506 -180 511 -158Q516 -137 519 -122L525 -122Q528 -136 533 -157Q538 -177 543 -199Q549 -220 553 -237L631 -526L722 -526L565 0L466 0L399 -267Q395 -286 389 -311Q383 -336 378 -362Q373 -388 369 -407L363 -407Q362 -395 357 -373Q353 -351 347 -323Q341 -296 334 -267L267 0L167 0Z"/><path id="g27" d="M282 12Q202 12 148 -18Q94 -47 67 -108Q39 -169 39 -263Q39 -358 67 -418Q94 -479 149 -508Q203 -538 285 -538Q359 -538 410 -509Q460 -481 486 -424Q511 -367 511 -280L511 -239L138 -239Q140 -179 156 -140Q172 -102 203 -83Q235 -65 284 -65Q315 -65 339 -73Q363 -82 380 -97Q397 -112 406 -133Q415 -155 416 -180L510 -180Q509 -136 494 -101Q478 -65 448 -40Q419 -15 377 -1Q335 12 282 12ZM140 -310L412 -310Q412 -351 402 -380Q393 -408 376 -426Q359 -444 335 -452Q312 -460 283 -460Q238 -460 208 -444Q177 -428 160 -395Q144 -362 140 -310Z"/><path id="g28" d="M325 12Q272 12 230 -9Q189 -30 162 -74L155 -74L146 0L68 0L68 -723L164 -723L164 -461L170 -461Q187 -488 211 -505Q235 -522 265 -530Q295 -538 329 -538Q390 -538 436 -509Q482 -480 508 -420Q533 -360 533 -266Q533 -169 508 -107Q483 -46 437 -17Q390 12 325 12ZM300 -71Q345 -71 374 -89Q404 -108 419 -148Q434 -188 434 -253L434 -272Q434 -336 420 -376Q405 -417 375 -436Q345 -455 298 -455Q269 -455 244 -445Q220 -435 202 -414Q184 -392 174 -357Q164 -321 164 -270L164 -255Q164 -196 178 -155Q192 -114 222 -93Q253 -71 300 -71Z"/><path id="g29" d="M257 12Q202 12 161 1Q120 -11 92 -32Q64 -53 50 -82Q36 -112 36 -148Q36 -153 36 -157Q37 -162 37 -164L132 -164Q131 -161 131 -158Q131 -155 131 -153Q132 -120 149 -100Q167 -81 196 -73Q226 -65 262 -65Q294 -65 320 -73Q347 -81 364 -98Q380 -114 380 -139Q380 -171 359 -187Q337 -204 303 -214Q269 -224 231 -234Q198 -243 166 -254Q134 -265 108 -281Q83 -298 67 -324Q51 -350 51 -389Q51 -425 66 -452Q81 -480 109 -499Q137 -518 176 -528Q215 -537 262 -537Q312 -537 349 -526Q387 -516 413 -496Q438 -476 451 -451Q464 -425 464 -395Q464 -389 464 -383Q464 -377 463 -375L369 -375L369 -385Q369 -405 359 -422Q348 -439 324 -450Q299 -461 257 -461Q229 -461 209 -456Q189 -451 175 -443Q162 -434 155 -422Q148 -410 148 -395Q148 -371 165 -358Q181 -344 209 -336Q237 -327 269 -317Q304 -307 341 -296Q378 -285 409 -269Q440 -253 459 -225Q478 -198 478 -152Q478 -109 461 -78Q445 -47 415 -27Q385 -7 345 2Q305 12 257 12Z"/><path id="g30" d="M288 12Q207 12 151 -18Q96 -47 68 -108Q39 -169 39 -263Q39 -358 68 -418Q96 -479 151 -508Q207 -538 288 -538Q370 -538 425 -508Q480 -479 509 -418Q537 -358 537 -263Q537 -169 509 -108Q480 -47 425 -18Q370 12 288 12ZM288 -68Q339 -68 372 -88Q405 -107 421 -149Q437 -190 437 -253L437 -273Q437 -337 421 -378Q405 -419 372 -438Q339 -458 288 -458Q238 -458 205 -438Q172 -419 155 -378Q139 -337 139 -273L139 -253Q139 -190 155 -149Q172 -107 205 -88Q238 -68 288 -68Z"/><path id="g31" d="M273 12Q195 12 143 -18Q91 -47 64 -109Q37 -170 37 -263Q37 -356 64 -417Q91 -478 144 -508Q197 -538 275 -538Q329 -538 368 -524Q408 -511 435 -484Q462 -457 475 -418Q488 -380 488 -331L391 -331Q391 -375 379 -403Q367 -431 341 -445Q315 -459 273 -459Q230 -459 199 -439Q169 -420 152 -379Q136 -338 136 -272L136 -253Q136 -190 152 -148Q167 -107 198 -87Q229 -67 275 -67Q317 -67 344 -82Q370 -97 382 -126Q395 -155 395 -195L488 -195Q488 -150 475 -112Q462 -74 435 -46Q408 -18 368 -3Q328 12 273 12Z"/><path id="g32" d="M68 -621L68 -723L164 -723L164 -621L68 -621ZM68 0L68 -526L164 -526L164 0L68 0Z"/><path id="g33" d="M195 12Q152 12 128 -5Q103 -21 93 -47Q83 -74 83 -104L83 -446L16 -446L16 -526L85 -526L103 -673L179 -673L179 -526L276 -526L276 -446L179 -446L179 -117Q179 -92 188 -80Q198 -68 222 -68L276 -68L276 -4Q266 1 252 4Q238 7 223 10Q208 12 195 12Z"/><path id="g34" d="M248 12Q183 12 136 -17Q90 -46 64 -107Q39 -169 39 -266Q39 -360 65 -420Q91 -480 137 -509Q183 -538 243 -538Q279 -538 309 -530Q338 -522 362 -505Q385 -488 403 -461L409 -461L409 -723L505 -723L505 0L427 0L418 -74L411 -74Q385 -30 342 -9Q299 12 248 12ZM273 -71Q321 -71 351 -93Q381 -114 395 -155Q409 -196 409 -255L409 -270Q409 -321 399 -357Q389 -392 371 -414Q353 -435 328 -445Q304 -455 275 -455Q227 -455 197 -436Q167 -417 153 -376Q139 -336 139 -272L139 -253Q139 -188 154 -148Q169 -108 198 -89Q228 -71 273 -71Z"/><path id="g35" d="M201 12Q174 12 145 5Q115 -1 90 -17Q65 -33 50 -61Q34 -90 34 -134Q34 -189 60 -224Q85 -259 131 -278Q177 -298 240 -306Q303 -314 377 -314L377 -369Q377 -397 368 -417Q359 -438 335 -449Q311 -461 267 -461Q223 -461 198 -450Q173 -439 163 -422Q153 -405 153 -385L153 -370L60 -370Q59 -375 59 -380Q59 -385 59 -392Q59 -439 86 -472Q113 -505 160 -521Q208 -538 271 -538Q338 -538 383 -519Q428 -500 451 -464Q473 -429 473 -378L473 -102Q473 -83 483 -76Q492 -68 505 -68L542 -68L542 -4Q529 2 512 6Q494 11 471 11Q445 11 427 1Q410 -9 399 -27Q389 -45 385 -68L379 -68Q361 -44 334 -25Q308 -7 274 2Q241 12 201 12ZM226 -68Q258 -68 285 -78Q313 -88 333 -105Q353 -123 365 -149Q377 -174 377 -204L377 -243Q303 -243 248 -235Q193 -226 164 -204Q134 -182 134 -142Q134 -117 145 -101Q156 -84 177 -76Q198 -68 226 -68Z"/><path id="g36" d="M90 0L90 -446L12 -446L12 -526L90 -526L90 -606Q90 -638 100 -666Q109 -695 135 -713Q161 -731 208 -731Q222 -731 236 -729Q250 -728 263 -725Q276 -722 285 -719L285 -651L233 -651Q209 -651 198 -639Q186 -627 186 -603L186 -526L285 -526L285 -446L186 -446L186 0L90 0Z"/><path id="g37" d="M206 0L11 -526L112 -526L205 -269Q212 -251 221 -222Q229 -194 239 -164Q248 -134 254 -111L259 -111Q266 -133 275 -163Q284 -192 293 -221Q302 -250 309 -269L402 -526L499 -526L303 0L206 0Z"/><path id="g38" d="M88 0L88 -110L193 -110L193 0L88 0Z"/><path id="g39" d="M379 12Q274 12 201 -26Q128 -65 90 -143Q51 -222 51 -343Q51 -522 138 -610Q225 -698 380 -698Q468 -698 536 -669Q604 -641 643 -584Q681 -526 681 -439L585 -439Q585 -499 560 -538Q534 -577 488 -597Q442 -616 380 -616Q308 -616 256 -588Q204 -560 177 -502Q150 -443 150 -351L150 -330Q150 -239 177 -182Q204 -124 256 -97Q307 -70 380 -70Q444 -70 491 -89Q537 -108 563 -148Q588 -187 588 -247L681 -247Q681 -158 642 -101Q602 -44 534 -16Q466 12 379 12Z"/><path id="g40" d="M285 12Q205 12 150 -18Q96 -47 68 -108Q39 -169 39 -263Q39 -358 68 -418Q96 -479 150 -508Q205 -538 285 -538Q365 -538 420 -508Q474 -479 502 -418Q530 -358 530 -263Q530 -169 502 -108Q474 -47 420 -18Q365 12 285 12ZM285 -62Q336 -62 370 -82Q404 -102 421 -144Q439 -187 439 -252L439 -274Q439 -340 421 -382Q404 -424 370 -444Q336 -464 285 -464Q234 -464 199 -444Q165 -424 148 -382Q131 -340 131 -274L131 -252Q131 -187 148 -144Q165 -102 199 -82Q234 -62 285 -62Z"/><path id="g41" d="M69 0L69 -723L157 -723L157 0L69 0Z"/><path id="g42" d="M279 12Q201 12 148 -18Q94 -47 67 -108Q39 -169 39 -263Q39 -358 67 -418Q94 -479 148 -508Q202 -538 283 -538Q357 -538 407 -509Q457 -481 483 -424Q508 -368 508 -283L508 -241L130 -241Q132 -178 148 -137Q165 -97 198 -78Q231 -60 281 -60Q315 -60 340 -68Q366 -77 383 -93Q401 -109 410 -131Q419 -153 420 -179L506 -179Q505 -137 490 -102Q475 -66 446 -41Q417 -16 375 -2Q333 12 279 12ZM132 -307L417 -307Q417 -351 407 -381Q397 -411 378 -430Q360 -449 336 -457Q311 -466 280 -466Q234 -466 202 -449Q170 -432 153 -397Q136 -362 132 -307Z"/><path id="g43" d="M269 12Q193 12 142 -18Q90 -47 63 -109Q37 -170 37 -263Q37 -356 63 -417Q90 -478 142 -508Q195 -538 272 -538Q326 -538 365 -524Q405 -510 431 -483Q457 -456 469 -418Q482 -380 482 -331L393 -331Q393 -377 381 -407Q368 -436 341 -450Q314 -465 270 -465Q226 -465 194 -445Q162 -426 145 -384Q128 -342 128 -273L128 -252Q128 -187 144 -144Q161 -101 193 -81Q225 -61 271 -61Q316 -61 344 -77Q371 -93 384 -123Q396 -153 396 -195L482 -195Q482 -151 469 -113Q457 -75 431 -47Q405 -19 365 -4Q325 12 269 12Z"/><path id="g44" d="M192 12Q151 12 128 -4Q105 -19 95 -44Q85 -70 85 -99L85 -452L17 -452L17 -526L87 -526L103 -673L173 -673L173 -526L272 -526L272 -452L173 -452L173 -112Q173 -87 182 -74Q191 -62 216 -62L272 -62L272 -4Q262 1 248 4Q234 7 219 10Q205 12 192 12Z"/><path id="g46" d="M170 0L11 -526L102 -526L182 -237Q188 -216 194 -191Q199 -167 205 -147Q210 -126 212 -115L218 -115Q222 -134 228 -158Q233 -182 238 -204Q242 -226 245 -238L317 -526L412 -526L485 -238Q489 -221 494 -199Q499 -176 504 -154Q510 -132 512 -115L518 -115Q522 -131 527 -153Q532 -174 538 -197Q544 -219 549 -236L628 -526L712 -526L554 0L464 0L396 -272Q392 -291 386 -316Q380 -342 374 -368Q369 -395 365 -415L359 -415Q357 -400 352 -377Q348 -354 342 -327Q336 -299 328 -272L260 0L170 0Z"/><path id="g47" d="M319 12Q266 12 224 -9Q182 -31 155 -75L148 -75L139 0L69 0L69 -723L157 -723L157 -460L163 -460Q181 -488 205 -505Q229 -522 259 -530Q289 -538 323 -538Q384 -538 430 -509Q476 -480 502 -420Q527 -360 527 -267Q527 -169 502 -107Q477 -46 431 -17Q385 12 319 12ZM298 -65Q343 -65 373 -83Q404 -101 420 -143Q436 -184 436 -252L436 -273Q436 -339 421 -381Q406 -422 375 -442Q344 -461 295 -461Q267 -461 242 -452Q217 -443 198 -421Q178 -399 168 -362Q157 -325 157 -271L157 -255Q157 -193 171 -151Q186 -109 217 -87Q249 -65 298 -65Z"/><path id="g48" d="M69 0L69 -526L140 -526L148 -447L155 -447Q176 -479 203 -499Q229 -519 262 -529Q294 -538 331 -538Q381 -538 419 -521Q456 -504 478 -466Q499 -428 499 -363L499 0L411 0L411 -351Q411 -384 402 -405Q394 -426 380 -438Q365 -450 344 -455Q324 -460 299 -460Q262 -460 229 -442Q196 -424 177 -390Q157 -356 157 -309L157 0L69 0Z"/><path id="g49" d="M69 0L69 -526L140 -526L148 -439L155 -439Q163 -464 177 -486Q191 -509 215 -523Q239 -538 274 -538Q289 -538 301 -535Q314 -533 320 -530L320 -449L287 -449Q253 -449 229 -437Q204 -426 188 -405Q172 -384 164 -355Q157 -326 157 -293L157 0L69 0Z"/><path id="g50" d="M69 -625L69 -723L157 -723L157 -625L69 -625ZM69 0L69 -526L157 -526L157 0L69 0Z"/><path id="g51" d="M201 12Q172 12 143 5Q114 -2 89 -18Q64 -34 49 -62Q34 -91 34 -134Q34 -188 60 -223Q86 -258 133 -277Q179 -297 243 -305Q307 -312 382 -312L382 -372Q382 -401 372 -422Q362 -443 337 -455Q311 -466 264 -466Q219 -466 192 -455Q166 -443 156 -425Q145 -407 145 -385L145 -370L60 -370Q59 -375 59 -380Q59 -385 59 -392Q59 -440 86 -473Q112 -505 160 -522Q208 -538 270 -538Q336 -538 380 -519Q425 -500 447 -465Q470 -430 470 -381L470 -96Q470 -77 479 -69Q488 -62 501 -62L540 -62L540 -4Q526 2 509 7Q492 11 470 11Q444 11 427 1Q410 -10 401 -28Q392 -47 389 -70L382 -70Q364 -45 336 -26Q309 -8 275 2Q241 12 201 12ZM223 -62Q255 -62 283 -72Q312 -82 334 -100Q356 -119 369 -145Q382 -171 382 -202L382 -246Q301 -246 244 -237Q187 -228 157 -205Q126 -182 126 -140Q126 -113 138 -96Q150 -79 172 -70Q194 -62 223 -62Z"/><path id="g52" d="M114 182Q90 182 72 179Q55 175 49 174L49 110L93 110Q117 110 140 100Q163 90 183 66Q203 42 217 0L13 -526L105 -526L210 -255Q217 -236 226 -209Q236 -181 245 -152Q255 -123 261 -101L267 -101Q271 -117 277 -137Q283 -157 289 -178Q296 -200 302 -220Q309 -239 313 -254L402 -526L491 -526L313 -15Q298 28 280 64Q262 101 240 127Q218 153 187 168Q156 182 114 182Z"/><path id="g53" d="M248 12Q183 12 136 -17Q90 -46 64 -107Q39 -169 39 -267Q39 -360 65 -420Q91 -480 137 -509Q183 -538 244 -538Q279 -538 309 -530Q339 -522 363 -505Q386 -488 404 -460L410 -460L410 -723L498 -723L498 0L427 0L419 -75L412 -75Q385 -31 342 -9Q299 12 248 12ZM269 -65Q319 -65 350 -87Q381 -109 395 -151Q410 -193 410 -255L410 -271Q410 -325 399 -362Q388 -399 369 -421Q350 -443 325 -452Q300 -461 272 -461Q223 -461 192 -442Q161 -422 146 -381Q131 -339 131 -273L131 -252Q131 -184 147 -143Q163 -101 193 -83Q224 -65 269 -65Z"/><path id="g54" d="M69 0L69 -723L157 -723L157 -271L380 -526L484 -526L304 -322L494 0L393 0L247 -257L157 -166L157 0L69 0Z"/><path id="g55" d="M69 173L69 -526L139 -526L148 -451L155 -451Q182 -495 224 -517Q266 -538 319 -538Q385 -538 431 -509Q477 -480 502 -419Q527 -357 527 -259Q527 -167 502 -106Q476 -46 430 -17Q384 12 323 12Q289 12 259 4Q229 -4 205 -21Q181 -39 163 -66L157 -66L157 173L69 173ZM295 -65Q344 -65 375 -84Q406 -104 421 -145Q436 -187 436 -252L436 -273Q436 -342 420 -383Q404 -425 373 -443Q343 -461 298 -461Q249 -461 217 -439Q186 -418 171 -375Q157 -332 157 -270L157 -255Q157 -200 168 -163Q178 -127 198 -105Q217 -83 242 -74Q267 -65 295 -65Z"/><path id="g56" d="M69 0L69 -723L157 -723L157 -460L164 -460Q184 -487 209 -504Q234 -521 264 -529Q295 -538 331 -538Q381 -538 419 -521Q456 -504 478 -466Q499 -428 499 -363L499 0L411 0L411 -351Q411 -384 402 -405Q394 -426 380 -438Q365 -450 344 -455Q324 -460 299 -460Q262 -460 229 -443Q196 -425 177 -392Q157 -358 157 -309L157 0L69 0Z"/><path id="g57" d="M253 12Q199 12 158 1Q117 -10 90 -31Q63 -52 49 -81Q35 -110 35 -147Q35 -152 35 -156Q35 -161 36 -164L123 -164Q122 -160 122 -157Q122 -154 122 -151Q123 -116 141 -96Q158 -76 189 -68Q220 -60 258 -60Q291 -60 319 -68Q347 -77 364 -95Q380 -112 380 -139Q380 -172 359 -189Q337 -207 302 -217Q267 -227 229 -238Q197 -247 165 -258Q133 -269 107 -285Q82 -301 66 -327Q51 -352 51 -391Q51 -426 65 -453Q80 -480 107 -499Q134 -518 172 -528Q211 -537 258 -537Q308 -537 346 -526Q383 -515 408 -495Q433 -475 445 -450Q457 -424 457 -395Q457 -389 457 -384Q457 -378 456 -375L370 -375L370 -386Q370 -406 359 -424Q349 -443 324 -454Q298 -466 253 -466Q224 -466 203 -461Q182 -457 168 -447Q154 -438 147 -426Q140 -413 140 -397Q140 -371 157 -357Q174 -343 203 -334Q231 -325 264 -314Q299 -304 335 -293Q372 -283 402 -267Q433 -251 452 -223Q470 -196 470 -151Q470 -109 454 -78Q438 -47 408 -27Q379 -7 340 2Q300 12 253 12Z"/><path id="g58" d="M99 -421L99 -526L197 -526L197 -421L99 -421ZM99 0L99 -105L197 -105L197 0L99 0Z"/><path id="g59" d="M90 0L90 -452L12 -452L12 -526L90 -526L90 -610Q90 -641 99 -668Q108 -696 133 -713Q158 -731 203 -731Q217 -731 231 -730Q244 -728 257 -726Q269 -723 279 -720L279 -657L226 -657Q201 -657 190 -645Q178 -632 178 -609L178 -526L279 -526L279 -452L178 -452L178 0L90 0ZM349 -625L349 -723L437 -723L437 -625L349 -625ZM349 0L349 -526L437 -526L437 0L349 0Z"/><path id="g60" d="M79 147L79 106Q98 102 111 87Q123 72 129 49Q135 27 135 0L89 0L89 -105L186 -105L186 -11Q186 47 170 79Q153 112 129 127Q104 142 79 147Z"/><path id="g61" d="M208 0L13 -526L105 -526L201 -263Q208 -244 217 -216Q226 -187 235 -158Q245 -128 251 -105L256 -105Q263 -127 272 -157Q281 -186 291 -215Q300 -243 307 -263L402 -526L491 -526L296 0L208 0Z"/><path id="g62" d="M90 0L90 -452L12 -452L12 -526L90 -526L90 -610Q90 -641 99 -668Q108 -696 133 -713Q158 -731 203 -731Q217 -731 231 -730Q244 -728 257 -726Q269 -723 279 -720L279 -657L226 -657Q201 -657 190 -645Q178 -632 178 -609L178 -526L279 -526L279 -452L178 -452L178 0L90 0Z"/><path id="g63" d="M232 12Q156 12 110 -27Q64 -66 64 -163L64 -526L152 -526L152 -175Q152 -142 160 -121Q168 -100 183 -88Q198 -76 218 -71Q239 -66 263 -66Q301 -66 333 -84Q365 -102 386 -136Q406 -171 406 -217L406 -526L494 -526L494 0L423 0L415 -79L408 -79Q387 -47 360 -27Q334 -7 302 3Q269 12 232 12Z"/><path id="g64" d="M89 0L89 -105L187 -105L187 0L89 0Z"/><path id="g65" d="M473 12Q343 12 259 -28Q174 -68 132 -142Q90 -215 90 -316L90 -687L246 -687L246 -323Q246 -224 305 -171Q364 -117 473 -117Q582 -117 641 -171Q700 -224 700 -323L700 -687L856 -687L856 -316Q856 -215 814 -142Q772 -68 688 -28Q603 12 473 12Z"/><path id="g66" d="M488 12Q349 12 254 -28Q160 -69 113 -148Q66 -228 66 -344Q66 -514 174 -607Q282 -699 487 -699Q603 -699 692 -666Q780 -633 830 -570Q880 -508 880 -420L727 -420Q727 -470 696 -503Q666 -536 611 -553Q557 -570 484 -570Q405 -570 347 -545Q289 -519 258 -472Q226 -424 226 -357L226 -332Q226 -264 258 -216Q289 -168 347 -142Q406 -117 485 -117Q561 -117 616 -133Q671 -150 701 -183Q731 -216 731 -265L881 -265Q881 -179 832 -117Q783 -54 695 -21Q606 12 488 12Z"/><linearGradient id="gatewash" x1="0" y1="0" x2="0" y2="1"><stop offset="0" stop-color="#72aaff" stop-opacity=".09"/><stop offset=".75" stop-color="#72aaff" stop-opacity="0"/></linearGradient><linearGradient id="lead" x1="0" y1="0" x2="1" y2="0"><stop offset="0" stop-color="#72aaff"/><stop offset="1" stop-color="#35414e"/></linearGradient><path id="g67" d="M326 16Q190 16 123 -87Q57 -190 57 -400Q57 -610 123 -713Q190 -816 326 -816Q462 -816 529 -713Q595 -610 595 -400Q595 -190 529 -87Q462 16 326 16ZM326 -91Q407 -91 444 -165Q481 -239 481 -400Q481 -561 444 -635Q407 -709 326 -709Q245 -709 208 -635Q171 -561 171 -400Q171 -239 208 -165Q245 -91 326 -91ZM136 -310L508 -627L508 -490L136 -173L136 -310Z"/><path id="g68" d="M412 -800L412 -107L589 -107L589 0L103 0L103 -107L298 -107L298 -748L332 -729L103 -578L103 -701L258 -800L412 -800Z"/><path id="g69" d="M396 12Q285 12 208 -26Q130 -63 89 -142Q49 -220 49 -343Q49 -522 140 -610Q231 -698 395 -698Q485 -698 557 -669Q629 -639 671 -580Q713 -521 713 -431L577 -431Q577 -481 554 -515Q531 -550 490 -568Q450 -585 397 -585Q327 -585 280 -559Q232 -533 209 -481Q186 -430 186 -354L186 -332Q186 -255 209 -204Q232 -153 279 -127Q326 -101 397 -101Q453 -101 494 -118Q536 -135 559 -170Q582 -204 582 -254L713 -254Q713 -165 671 -106Q630 -46 558 -17Q487 12 396 12Z"/><path id="g70" d="M66 0L66 -723L191 -723L191 -464L198 -464Q216 -487 241 -503Q266 -520 297 -529Q328 -538 364 -538Q418 -538 458 -519Q498 -501 521 -459Q543 -418 543 -350L543 0L418 0L418 -328Q418 -357 411 -376Q404 -396 391 -407Q377 -419 358 -425Q339 -430 316 -430Q281 -430 253 -413Q224 -397 207 -368Q191 -340 191 -302L191 0L66 0Z"/><path id="g71" d="M311 12Q222 12 162 -18Q102 -47 71 -109Q41 -170 41 -263Q41 -358 71 -418Q102 -479 162 -508Q222 -538 311 -538Q400 -538 460 -508Q520 -479 550 -418Q581 -358 581 -263Q581 -170 550 -109Q520 -47 460 -18Q400 12 311 12ZM311 -89Q360 -89 391 -108Q423 -126 437 -163Q452 -200 452 -256L452 -271Q452 -326 437 -363Q423 -400 391 -419Q360 -437 311 -437Q262 -437 230 -419Q199 -400 184 -363Q169 -326 169 -271L169 -256Q169 -200 184 -163Q199 -126 230 -108Q262 -89 311 -89Z"/><path id="g72" d="M280 12Q223 12 178 0Q133 -12 103 -34Q72 -55 56 -85Q40 -114 40 -151Q40 -156 40 -160Q41 -164 41 -166L164 -166Q164 -164 164 -162Q164 -160 164 -158Q165 -131 182 -115Q199 -98 226 -92Q254 -85 284 -85Q312 -85 338 -90Q363 -95 380 -108Q396 -120 396 -141Q396 -167 375 -181Q355 -194 320 -203Q286 -212 244 -221Q209 -230 175 -241Q140 -252 113 -269Q86 -286 70 -313Q53 -340 53 -380Q53 -420 71 -449Q88 -478 119 -498Q150 -517 193 -527Q236 -537 286 -537Q335 -537 375 -527Q415 -517 445 -499Q475 -480 491 -454Q507 -427 507 -394Q507 -388 507 -381Q506 -375 506 -373L384 -373L384 -380Q384 -399 371 -413Q359 -426 336 -434Q313 -442 281 -442Q259 -442 240 -438Q221 -434 208 -428Q194 -421 186 -412Q179 -403 179 -391Q179 -372 195 -361Q212 -350 240 -342Q268 -334 300 -326Q339 -316 378 -306Q417 -296 450 -279Q483 -263 502 -234Q522 -205 522 -157Q522 -111 505 -78Q487 -45 454 -26Q422 -6 377 3Q333 12 280 12Z"/><path id="g73" d="M305 12Q218 12 159 -18Q101 -47 71 -108Q41 -169 41 -263Q41 -358 71 -418Q100 -479 159 -508Q218 -538 304 -538Q385 -538 440 -509Q494 -481 522 -422Q550 -363 550 -270L550 -232L169 -232Q171 -183 186 -150Q200 -118 230 -102Q260 -86 307 -86Q329 -86 351 -92Q372 -97 388 -110Q405 -122 415 -140Q425 -159 426 -184L549 -184Q549 -135 531 -99Q513 -62 480 -37Q447 -13 403 0Q358 12 305 12ZM171 -319L419 -319Q419 -352 411 -374Q403 -397 387 -412Q372 -427 351 -433Q330 -440 305 -440Q264 -440 235 -427Q207 -414 191 -387Q176 -360 171 -319Z"/><path id="g75" d="M211 12Q185 12 155 6Q124 0 97 -15Q70 -30 53 -60Q36 -90 36 -137Q36 -193 62 -228Q88 -264 134 -284Q181 -303 246 -311Q310 -319 387 -319L387 -359Q387 -383 378 -402Q370 -420 349 -430Q327 -440 287 -440Q249 -440 226 -432Q203 -423 193 -411Q183 -398 183 -383L183 -369L62 -369Q61 -374 61 -379Q61 -384 61 -391Q61 -436 89 -469Q117 -503 168 -520Q219 -538 288 -538Q364 -538 413 -519Q462 -499 487 -462Q511 -424 511 -369L511 -125Q511 -106 522 -97Q532 -89 546 -89L581 -89L581 -4Q571 0 551 6Q531 11 502 11Q473 11 452 2Q431 -7 417 -23Q404 -40 398 -62L392 -62Q373 -40 347 -23Q321 -6 287 3Q254 12 211 12ZM248 -89Q278 -89 304 -98Q329 -106 348 -122Q366 -138 376 -160Q387 -183 387 -210L387 -234Q323 -234 272 -227Q221 -220 192 -201Q163 -183 163 -148Q163 -129 173 -116Q183 -103 202 -96Q221 -89 248 -89Z"/><path id="g76" d="M298 12Q213 12 156 -18Q98 -47 70 -108Q41 -169 41 -263Q41 -358 70 -418Q99 -479 157 -508Q214 -538 298 -538Q353 -538 396 -525Q439 -512 471 -485Q502 -459 518 -419Q535 -380 535 -328L408 -328Q408 -365 395 -389Q383 -413 358 -425Q333 -438 297 -438Q253 -438 225 -419Q197 -400 183 -363Q169 -326 169 -270L169 -256Q169 -200 183 -163Q197 -125 226 -107Q255 -88 302 -88Q337 -88 362 -101Q387 -114 400 -139Q414 -164 414 -198L535 -198Q535 -148 518 -109Q502 -70 471 -43Q440 -16 397 -2Q353 12 298 12Z"/><path id="g77" d="M217 12Q167 12 138 -7Q108 -26 96 -58Q84 -89 84 -126L84 -425L15 -425L15 -526L87 -526L110 -674L208 -674L208 -526L308 -526L308 -425L208 -425L208 -138Q208 -115 220 -102Q231 -89 257 -89L308 -89L308 -4Q297 0 281 4Q266 7 249 10Q232 12 217 12Z"/><path id="g78" d="M66 0L66 -723L191 -723L191 0L66 0Z"/><path id="g79" d="M158 185Q121 185 89 171Q57 157 37 130Q17 102 17 61Q17 18 43 -8Q69 -35 102 -48Q77 -61 63 -82Q48 -103 48 -131Q48 -169 76 -193Q104 -217 142 -224Q105 -247 85 -282Q64 -317 64 -362Q64 -418 92 -457Q120 -496 173 -517Q226 -538 302 -538Q332 -538 360 -534Q388 -530 411 -523Q449 -543 464 -570Q479 -596 480 -614L601 -614Q601 -579 587 -552Q573 -525 548 -507Q523 -490 488 -481Q514 -460 527 -429Q541 -399 541 -362Q541 -307 515 -267Q488 -228 437 -206Q386 -185 312 -185L222 -185Q199 -185 187 -176Q175 -167 175 -150Q175 -136 186 -126Q198 -116 219 -116L461 -116Q523 -116 562 -76Q601 -37 601 24Q601 70 577 106Q553 143 511 164Q468 185 413 185L158 185ZM199 95L411 95Q429 95 444 89Q458 82 467 70Q475 58 475 42Q475 16 458 3Q442 -10 418 -10L200 -10Q175 -10 159 4Q143 19 143 42Q143 66 158 80Q174 95 199 95ZM303 -272Q359 -272 388 -295Q417 -318 417 -362Q417 -405 388 -428Q359 -451 303 -451Q247 -451 218 -428Q189 -405 189 -362Q189 -333 202 -313Q215 -293 240 -283Q265 -272 303 -272Z"/><path id="g80" d="M260 12Q193 12 143 -17Q94 -46 68 -107Q41 -168 41 -264Q41 -359 68 -419Q95 -480 143 -509Q191 -538 252 -538Q289 -538 320 -530Q352 -522 376 -505Q400 -489 417 -464L423 -464L423 -723L548 -723L548 0L445 0L435 -72L428 -72Q401 -29 357 -9Q313 12 260 12ZM297 -95Q341 -95 368 -114Q396 -132 410 -168Q424 -204 424 -256L424 -268Q424 -307 416 -337Q408 -368 392 -389Q377 -410 353 -420Q329 -431 297 -431Q251 -431 223 -414Q195 -396 182 -360Q169 -324 169 -269L169 -255Q169 -201 182 -165Q195 -130 223 -112Q251 -95 297 -95Z"/><path id="g81" d="M241 12Q160 12 111 -31Q62 -74 62 -176L62 -526L187 -526L187 -198Q187 -169 194 -150Q200 -131 214 -119Q227 -107 246 -102Q265 -96 288 -96Q323 -96 352 -113Q380 -129 397 -158Q414 -187 414 -224L414 -526L538 -526L538 0L436 0L426 -73L418 -73Q399 -47 372 -28Q346 -9 313 2Q280 12 241 12Z"/><path id="g82" d="M66 0L66 -526L169 -526L179 -442L187 -442Q197 -467 212 -489Q228 -511 252 -524Q277 -538 311 -538Q327 -538 341 -535Q355 -532 363 -529L363 -413L321 -413Q289 -413 264 -404Q240 -394 223 -376Q207 -357 199 -330Q191 -303 191 -268L191 0L66 0Z"/><path id="g83" d="M102 -165L350 -382Q405 -430 430 -476Q455 -523 455 -574Q455 -637 423 -673Q390 -709 333 -709Q277 -709 241 -671Q206 -633 192 -556L85 -556Q88 -640 121 -698Q154 -756 209 -786Q263 -816 333 -816Q405 -816 458 -786Q511 -756 540 -701Q569 -647 569 -574Q569 -500 533 -434Q498 -368 421 -304L199 -117L199 -107L555 -107L555 0L102 0L102 -165Z"/><path id="g84" d="M18 0L339 -687L517 -687L839 0L671 0L611 -133L236 -133L176 0L18 0ZM292 -256L555 -256L481 -424Q476 -435 468 -454Q460 -473 452 -495Q444 -516 437 -533Q430 -550 427 -556L420 -556Q412 -536 402 -510Q391 -485 382 -461Q372 -437 366 -424L292 -256Z"/><path id="g85" d="M444 12Q324 12 244 -25Q165 -62 125 -132Q85 -202 85 -299L85 -687L239 -687L239 -306Q239 -214 292 -164Q345 -114 444 -114Q542 -114 596 -164Q649 -214 649 -306L649 -687L803 -687L803 -299Q803 -202 763 -132Q723 -62 643 -25Q564 12 444 12Z"/><path id="g86" d="M306 0L306 -554L25 -554L25 -687L740 -687L740 -554L460 -554L460 0L306 0Z"/><path id="g87" d="M90 0L90 -687L244 -687L244 -417L661 -417L661 -687L815 -687L815 0L661 0L661 -284L244 -284L244 0L90 0Z"/><path id="g88" d="M476 12Q348 12 254 -29Q160 -70 110 -149Q59 -228 59 -343Q59 -459 110 -538Q160 -617 254 -658Q348 -699 476 -699Q606 -699 699 -658Q792 -617 843 -538Q893 -459 893 -343Q893 -228 843 -149Q792 -70 699 -29Q606 12 476 12ZM476 -114Q534 -114 581 -128Q629 -143 663 -170Q698 -197 716 -238Q735 -279 735 -332L735 -356Q735 -409 716 -450Q698 -490 663 -518Q629 -545 581 -559Q534 -572 476 -572Q418 -572 371 -559Q324 -545 289 -518Q255 -490 237 -450Q218 -409 218 -356L218 -332Q218 -279 237 -238Q255 -197 289 -170Q324 -143 371 -128Q418 -114 476 -114Z"/><path id="g89" d="M90 0L90 -687L587 -687Q661 -687 709 -658Q757 -629 781 -581Q805 -532 805 -471Q805 -408 774 -355Q743 -302 679 -273L823 0L651 0L527 -245L244 -245L244 0L90 0ZM244 -370L550 -370Q596 -370 622 -398Q647 -425 647 -469Q647 -498 636 -519Q625 -539 603 -550Q582 -560 550 -560L244 -560L244 -370Z"/><path id="g90" d="M90 0L90 -687L244 -687L244 0L90 0Z"/><path id="g91" d="M332 0L332 -278L16 -687L199 -687L409 -404L418 -404L630 -687L803 -687L486 -278L486 0L332 0Z"/><path id="g92" d="M79 0L79 -686L449 -686Q524 -686 573 -659Q623 -632 648 -582Q673 -533 673 -465Q673 -399 647 -348Q621 -298 569 -270Q518 -243 442 -243L213 -243L213 0L79 0ZM213 -356L432 -356Q483 -356 511 -385Q538 -414 538 -465Q538 -500 526 -523Q514 -547 491 -560Q468 -573 432 -573L213 -573L213 -356Z"/><path id="g93" d="M66 175L66 -526L169 -526L179 -454L186 -454Q214 -497 258 -518Q301 -538 354 -538Q422 -538 471 -509Q520 -480 546 -419Q573 -358 573 -262Q573 -168 546 -107Q519 -46 471 -17Q424 12 362 12Q325 12 293 4Q262 -4 238 -21Q214 -38 197 -62L191 -62L191 175L66 175ZM317 -95Q363 -95 391 -112Q419 -130 432 -166Q445 -201 445 -255L445 -269Q445 -324 432 -360Q419 -396 391 -414Q363 -431 317 -431Q274 -431 246 -413Q218 -394 204 -358Q190 -321 190 -269L190 -257Q190 -219 198 -188Q206 -158 222 -137Q237 -117 261 -106Q285 -95 317 -95Z"/><path id="g94" d="M66 -608L66 -723L191 -723L191 -608L66 -608ZM66 0L66 -526L191 -526L191 0L66 0Z"/><path id="g95" d="M136 185Q100 185 77 179Q54 174 49 172L49 84L107 84Q132 84 154 73Q176 62 192 43Q209 24 218 0L5 -526L137 -526L237 -274Q245 -257 253 -230Q261 -204 269 -177Q278 -150 284 -128L289 -128Q293 -140 298 -159Q303 -177 309 -198Q315 -218 322 -238Q328 -258 333 -273L416 -526L544 -526L362 -31Q345 14 325 53Q306 93 280 122Q254 152 219 168Q184 185 136 185Z"/><path id="g96" d="M66 0L66 -526L169 -526L179 -453L187 -453Q206 -479 233 -498Q259 -517 293 -528Q326 -538 364 -538Q418 -538 458 -519Q498 -501 521 -459Q543 -418 543 -350L543 0L418 0L418 -328Q418 -357 411 -376Q404 -396 391 -407Q377 -419 358 -425Q339 -430 316 -430Q281 -430 253 -413Q224 -397 207 -368Q191 -340 191 -302L191 0L66 0Z"/><path id="g97" d="M571 -211Q571 -143 540 -92Q509 -41 455 -12Q401 16 330 16Q254 16 199 -13Q144 -43 114 -99Q85 -155 83 -234L190 -234Q199 -164 235 -127Q270 -91 329 -91Q368 -91 397 -107Q425 -123 441 -152Q456 -181 456 -221Q456 -281 422 -317Q389 -354 334 -354L253 -354L253 -460L334 -460Q391 -460 426 -494Q461 -529 461 -584Q461 -641 427 -675Q393 -709 334 -709Q272 -709 235 -671Q198 -633 185 -556L78 -556Q82 -640 113 -698Q145 -756 201 -786Q257 -816 335 -816Q406 -816 460 -788Q513 -761 543 -711Q574 -661 574 -594Q574 -528 541 -481Q509 -434 454 -418L454 -402Q508 -387 540 -337Q571 -286 571 -211Z"/><path id="g98" d="M169 0L3 -526L133 -526L209 -244Q216 -222 220 -201Q225 -179 228 -164Q232 -148 233 -144L239 -144Q243 -161 247 -181Q251 -202 256 -220Q260 -238 262 -247L333 -526L467 -526L541 -246Q545 -233 549 -214Q552 -196 557 -177Q561 -158 564 -144L570 -144Q573 -157 577 -175Q581 -192 585 -210Q590 -229 593 -243L668 -526L789 -526L624 0L494 0L430 -250Q425 -269 419 -294Q413 -318 408 -341Q403 -365 400 -382L394 -382Q393 -373 389 -354Q386 -336 380 -309Q374 -282 365 -250L300 0L169 0Z"/><path id="g99" d="M77 164L77 111Q101 107 117 91Q132 75 140 52Q149 28 149 0L85 0L85 -132L217 -132L217 -12Q217 47 197 84Q178 121 146 139Q114 158 77 164Z"/><path id="g100" d="M95 0L95 -425L14 -425L14 -526L95 -526L95 -590Q95 -627 108 -660Q121 -692 151 -712Q181 -732 234 -732Q250 -732 266 -730Q283 -728 298 -724Q313 -721 324 -716L324 -631L271 -631Q245 -631 232 -619Q220 -607 220 -584L220 -526L324 -526L324 -425L220 -425L220 0L95 0Z"/><path id="g101" d="M490 -800L490 -339L603 -339L603 -232L490 -232L490 0L376 0L376 -232L54 -232L54 -382L296 -800L490 -800ZM152 -349L152 -339L376 -339L376 -785L407 -785L152 -349Z"/><path id="g102" d="M111 -800L560 -800L560 -693L180 -693L225 -735L225 -489L255 -489Q271 -509 301 -520Q331 -532 365 -532Q425 -532 473 -498Q520 -465 547 -405Q575 -346 575 -267Q575 -183 544 -119Q513 -56 458 -20Q403 16 331 16Q222 16 158 -45Q93 -105 85 -214L192 -214Q205 -154 239 -122Q273 -91 330 -91Q370 -91 399 -112Q428 -134 445 -173Q461 -213 461 -267Q461 -318 445 -355Q429 -392 401 -412Q373 -431 333 -431Q290 -431 260 -410Q230 -388 215 -346L111 -346L111 -800Z"/><path id="g103" d="M354 12Q301 12 258 -9Q214 -29 186 -72L179 -72L169 0L66 0L66 -723L191 -723L191 -464L197 -464Q214 -489 238 -505Q262 -522 293 -530Q325 -538 362 -538Q424 -538 471 -509Q519 -480 546 -419Q573 -359 573 -264Q573 -168 546 -107Q520 -46 471 -17Q422 12 354 12ZM317 -95Q363 -95 391 -112Q419 -130 432 -165Q445 -201 445 -255L445 -269Q445 -324 432 -360Q419 -396 391 -414Q363 -431 317 -431Q285 -431 261 -420Q237 -410 222 -389Q206 -368 198 -337Q190 -307 190 -268L190 -256Q190 -204 204 -168Q218 -132 246 -114Q274 -95 317 -95Z"/><path id="g104" d="M209 0L5 -526L136 -526L226 -286Q232 -269 241 -242Q250 -214 259 -184Q268 -155 275 -130L280 -130Q287 -153 295 -182Q303 -211 312 -240Q320 -268 327 -286L416 -526L544 -526L339 0L209 0Z"/><path id="g105" d="M325 16Q251 16 196 -18Q140 -53 108 -114Q77 -176 77 -256Q77 -316 98 -377Q119 -439 165 -514L341 -800L464 -800L288 -519L305 -504Q316 -509 330 -512Q344 -514 360 -514Q423 -514 471 -481Q520 -447 548 -389Q575 -331 575 -256Q575 -176 543 -114Q512 -53 455 -18Q399 16 325 16ZM191 -256Q191 -206 208 -169Q224 -131 255 -111Q285 -91 326 -91Q368 -91 398 -111Q428 -131 445 -169Q461 -206 461 -256Q461 -306 445 -342Q428 -379 398 -399Q368 -419 326 -419Q285 -419 255 -399Q224 -379 208 -342Q191 -306 191 -256Z"/><path id="g106" d="M348 12Q288 12 233 0Q179 -12 137 -38Q95 -64 71 -105Q47 -145 47 -201Q47 -207 48 -212Q48 -218 48 -220L182 -220Q182 -218 182 -213Q181 -207 181 -203Q181 -170 201 -147Q222 -124 260 -112Q298 -100 350 -100Q382 -100 409 -104Q435 -108 455 -115Q474 -122 488 -132Q501 -143 508 -156Q515 -169 515 -184Q515 -213 496 -231Q477 -250 445 -262Q413 -275 373 -285Q332 -295 290 -305Q247 -316 207 -331Q166 -346 134 -369Q102 -391 83 -425Q65 -459 65 -507Q65 -555 85 -591Q106 -627 145 -651Q184 -675 236 -686Q289 -698 352 -698Q412 -698 463 -686Q514 -674 552 -650Q589 -625 610 -588Q631 -550 631 -499L631 -487L499 -487L499 -497Q499 -525 481 -545Q462 -564 429 -575Q396 -586 352 -586Q303 -586 269 -577Q235 -569 217 -552Q200 -536 200 -513Q200 -488 219 -472Q237 -455 270 -444Q302 -432 342 -423Q382 -413 425 -402Q467 -391 508 -376Q548 -361 580 -339Q612 -316 631 -282Q650 -249 650 -202Q650 -125 611 -77Q572 -30 504 -9Q436 12 348 12Z"/><path id="g107" d="M86 0L86 -686L233 -686L389 -241Q395 -223 402 -202Q408 -180 413 -161Q419 -142 422 -128L429 -128Q432 -143 437 -163Q442 -182 448 -203Q454 -224 459 -241L615 -686L761 -686L761 0L666 0L666 -402Q666 -433 667 -469Q668 -506 669 -536Q670 -567 670 -580L662 -580Q659 -567 652 -543Q645 -520 638 -494Q630 -469 624 -449L463 0L381 0L220 -449Q214 -466 208 -489Q201 -511 195 -535Q188 -559 182 -580L175 -580Q176 -558 176 -525Q177 -493 178 -460Q178 -428 178 -402L178 0L86 0Z"/><path id="g108" d="M40 -226L40 -315L293 -315L293 -226L40 -226Z"/><path id="g109" d="M158 182Q120 182 88 166Q56 151 37 122Q18 93 18 53Q18 9 42 -20Q67 -49 101 -63Q76 -75 62 -96Q48 -118 48 -144Q48 -179 74 -203Q99 -227 136 -235Q102 -257 82 -292Q63 -326 63 -368Q63 -418 87 -456Q110 -494 159 -516Q207 -538 277 -538Q309 -538 337 -533Q365 -529 387 -519Q422 -535 440 -560Q457 -585 461 -611L548 -611Q548 -581 534 -554Q521 -528 498 -510Q475 -493 442 -487Q467 -463 480 -433Q492 -403 492 -368Q492 -318 469 -279Q445 -241 398 -219Q351 -197 280 -197L198 -197Q171 -197 154 -186Q137 -176 137 -153Q137 -133 154 -121Q171 -108 198 -108L412 -108Q470 -108 507 -70Q544 -31 544 29Q544 72 523 107Q501 141 463 162Q424 182 373 182L158 182ZM183 115L372 115Q395 115 414 105Q433 96 444 79Q455 62 455 42Q455 8 435 -12Q415 -32 385 -32L183 -32Q151 -32 129 -11Q107 11 107 42Q107 75 129 95Q151 115 183 115ZM278 -263Q342 -263 373 -291Q404 -319 404 -368Q404 -416 373 -444Q342 -472 278 -472Q214 -472 183 -444Q151 -416 151 -368Q151 -337 165 -313Q179 -289 207 -276Q235 -263 278 -263Z"/><path id="g110" d="M14 0L203 -269L23 -526L129 -526L257 -338L262 -338L390 -526L490 -526L310 -272L500 0L395 0L257 -203L252 -203L114 0L14 0Z"/><path id="g111" d="M86 0L86 -686L440 -686Q499 -686 542 -666Q585 -645 608 -608Q632 -571 632 -520Q632 -481 618 -448Q604 -415 579 -393Q554 -371 522 -360L522 -356Q558 -348 587 -327Q616 -306 634 -272Q651 -237 651 -187Q651 -120 623 -79Q595 -38 548 -19Q501 0 440 0L86 0ZM181 -82L439 -82Q490 -82 522 -108Q554 -135 554 -197Q554 -235 540 -260Q526 -286 499 -299Q472 -311 431 -311L181 -311L181 -82ZM181 -392L422 -392Q456 -392 481 -406Q506 -419 520 -444Q535 -468 535 -499Q535 -553 506 -578Q477 -604 429 -604L181 -604L181 -392Z"/><path id="g112" d="M7 0L278 -686L403 -686L675 0L572 0L505 -170L171 -170L105 0L7 0ZM202 -251L473 -251L390 -466Q387 -475 381 -491Q375 -507 368 -527Q361 -546 354 -567Q347 -587 341 -604L335 -604Q328 -584 319 -558Q310 -532 301 -508Q292 -483 286 -466L202 -251Z"/><path id="g113" d="M69 0L69 -526L140 -526L148 -447L155 -447Q175 -479 200 -499Q225 -519 255 -529Q285 -538 320 -538Q371 -538 408 -517Q445 -497 463 -447L469 -447Q488 -479 513 -498Q538 -518 569 -528Q600 -538 635 -538Q683 -538 719 -522Q755 -505 775 -468Q796 -430 796 -367L796 0L708 0L708 -353Q708 -385 700 -406Q693 -427 679 -439Q665 -450 647 -455Q628 -460 607 -460Q572 -460 542 -442Q513 -424 495 -390Q477 -356 477 -309L477 0L389 0L389 -353Q389 -385 381 -406Q373 -427 360 -439Q347 -450 329 -455Q310 -460 290 -460Q254 -460 224 -442Q193 -424 175 -390Q157 -356 157 -309L157 0L69 0Z"/><path id="g114" d="M254 12Q185 12 136 -11Q86 -33 61 -77Q35 -120 35 -186L35 -216L130 -216L130 -181Q130 -127 162 -98Q194 -70 254 -70Q315 -70 347 -109Q380 -148 380 -225L380 -686L475 -686L475 -230Q475 -149 449 -95Q423 -41 373 -15Q324 12 254 12Z"/><path id="g115" d="M266 0L10 -686L113 -686L289 -200Q295 -186 301 -168Q307 -150 313 -133Q319 -116 324 -103L330 -103Q334 -115 340 -132Q346 -149 352 -167Q358 -184 364 -200L538 -686L638 -686L381 0L266 0Z"/><path id="g116" d="M280 0L280 -285L10 -686L119 -686L328 -369L333 -369L541 -686L645 -686L376 -285L376 0L280 0Z"/></defs><rect x=".5" y=".5" width="879" height="518" rx="14" fill="#0c1015" stroke="#232c37"/><path d="M14 1.5H866" stroke="#fff" stroke-opacity=".06"/><g transform="translate(44.00 52.00) scale(0.01100)" fill="#7a8794"><use xlink:href="#g0" x="0"/><use xlink:href="#g1" x="1044"/><use xlink:href="#g2" x="1969"/><use xlink:href="#g1" x="2801"/><use xlink:href="#g4" x="4330"/><use xlink:href="#g5" x="5367"/><use xlink:href="#g6" x="6711"/><use xlink:href="#g7" x="7727"/><use xlink:href="#g8" x="8774"/><use xlink:href="#g0" x="9340"/><use xlink:href="#g1" x="10384"/><use xlink:href="#g2" x="11309"/><use xlink:href="#g1" x="12141"/><use xlink:href="#g9" x="13670"/><use xlink:href="#g10" x="14838"/><use xlink:href="#g6" x="15844"/><use xlink:href="#g11" x="16860"/><use xlink:href="#g1" x="17931"/><use xlink:href="#g2" x="18856"/><use xlink:href="#g12" x="19823"/><use xlink:href="#g9" x="20321"/><use xlink:href="#g13" x="21489"/><use xlink:href="#g14" x="22606"/></g><g transform="translate(37.00 132.00) scale(0.07600)" fill="#e8edf2"><use xlink:href="#g15" x="0"/><use xlink:href="#g16" x="807"/><use xlink:href="#g17" x="1483"/><use xlink:href="#g18" x="1857"/><use xlink:href="#g19" x="2548"/><use xlink:href="#g20" x="3229"/></g><g transform="translate(44.00 184.00) scale(0.01900)" fill="#e8edf2"><use xlink:href="#g21" x="0"/><use xlink:href="#g22" x="539"/><use xlink:href="#g23" x="1106"/><use xlink:href="#g24" x="1445"/><use xlink:href="#g26" x="2220"/><use xlink:href="#g27" x="2947"/><use xlink:href="#g28" x="3498"/><use xlink:href="#g29" x="4278"/><use xlink:href="#g30" x="4795"/><use xlink:href="#g22" x="5371"/><use xlink:href="#g23" x="5938"/><use xlink:href="#g31" x="6267"/><use xlink:href="#g27" x="6792"/><use xlink:href="#g29" x="7343"/><use xlink:href="#g32" x="8067"/><use xlink:href="#g24" x="8299"/><use xlink:href="#g33" x="8867"/><use xlink:href="#g30" x="9168"/><use xlink:href="#g30" x="9951"/><use xlink:href="#g26" x="10523"/><use xlink:href="#g24" x="11254"/><use xlink:href="#g27" x="11822"/><use xlink:href="#g34" x="12373"/><use xlink:href="#g35" x="13153"/><use xlink:href="#g23" x="13700"/><use xlink:href="#g33" x="14039"/><use xlink:href="#g32" x="14340"/><use xlink:href="#g36" x="14572"/><use xlink:href="#g35" x="14854"/><use xlink:href="#g31" x="15401"/><use xlink:href="#g33" x="15926"/><use xlink:href="#g29" x="16227"/><use xlink:href="#g35" x="16951"/><use xlink:href="#g24" x="17498"/><use xlink:href="#g34" x="18066"/></g><g transform="translate(44.00 211.00) scale(0.01900)" fill="#e8edf2"><use xlink:href="#g37" x="0"/><use xlink:href="#g27" x="506"/><use xlink:href="#g23" x="1057"/><use xlink:href="#g29" x="1396"/><use xlink:href="#g32" x="1913"/><use xlink:href="#g30" x="2145"/><use xlink:href="#g24" x="2721"/><use xlink:href="#g27" x="3289"/><use xlink:href="#g34" x="3840"/><use xlink:href="#g34" x="4620"/><use xlink:href="#g35" x="5193"/><use xlink:href="#g33" x="5740"/><use xlink:href="#g35" x="6041"/><use xlink:href="#g29" x="6588"/><use xlink:href="#g27" x="7105"/><use xlink:href="#g33" x="7656"/><use xlink:href="#g29" x="7957"/><use xlink:href="#g38" x="8474"/></g><g transform="translate(460.00 182.00) scale(0.01450)" fill="#a3afbb"><use xlink:href="#g39" x="0"/><use xlink:href="#g40" x="728"/><use xlink:href="#g41" x="1298"/><use xlink:href="#g41" x="1523"/><use xlink:href="#g42" x="1748"/><use xlink:href="#g43" x="2296"/><use xlink:href="#g44" x="2815"/><use xlink:href="#g46" x="3321"/><use xlink:href="#g42" x="4039"/><use xlink:href="#g47" x="4587"/><use xlink:href="#g43" x="5363"/><use xlink:href="#g40" x="5882"/><use xlink:href="#g48" x="6452"/><use xlink:href="#g44" x="7015"/><use xlink:href="#g42" x="7312"/><use xlink:href="#g48" x="7860"/><use xlink:href="#g44" x="8423"/><use xlink:href="#g49" x="8929"/><use xlink:href="#g42" x="9251"/><use xlink:href="#g41" x="9799"/><use xlink:href="#g50" x="10024"/><use xlink:href="#g51" x="10249"/><use xlink:href="#g47" x="10794"/><use xlink:href="#g41" x="11361"/><use xlink:href="#g52" x="11586"/><use xlink:href="#g51" x="12299"/><use xlink:href="#g48" x="12844"/><use xlink:href="#g53" x="13407"/><use xlink:href="#g54" x="14183"/><use xlink:href="#g42" x="14664"/><use xlink:href="#g42" x="15212"/><use xlink:href="#g55" x="15760"/><use xlink:href="#g46" x="16536"/><use xlink:href="#g56" x="17259"/><use xlink:href="#g51" x="17822"/><use xlink:href="#g44" x="18367"/><use xlink:href="#g46" x="18873"/><use xlink:href="#g51" x="19586"/><use xlink:href="#g57" x="20131"/><use xlink:href="#g43" x="20850"/><use xlink:href="#g40" x="21369"/><use xlink:href="#g41" x="21939"/><use xlink:href="#g41" x="22164"/><use xlink:href="#g42" x="22389"/><use xlink:href="#g43" x="22937"/><use xlink:href="#g44" x="23456"/><use xlink:href="#g42" x="23753"/><use xlink:href="#g53" x="24301"/><use xlink:href="#g58" x="24868"/></g><g transform="translate(460.00 204.50) scale(0.01450)" fill="#a3afbb"><use xlink:href="#g44" x="0"/><use xlink:href="#g56" x="297"/><use xlink:href="#g42" x="860"/><use xlink:href="#g59" x="1617"/><use xlink:href="#g41" x="2123"/><use xlink:href="#g42" x="2348"/><use xlink:href="#g57" x="2896"/><use xlink:href="#g60" x="3406"/><use xlink:href="#g44" x="3892"/><use xlink:href="#g56" x="4189"/><use xlink:href="#g42" x="4752"/><use xlink:href="#g49" x="5509"/><use xlink:href="#g42" x="5831"/><use xlink:href="#g43" x="6379"/><use xlink:href="#g40" x="6898"/><use xlink:href="#g49" x="7468"/><use xlink:href="#g53" x="7790"/><use xlink:href="#g57" x="8357"/><use xlink:href="#g60" x="8867"/><use xlink:href="#g51" x="9353"/><use xlink:href="#g48" x="9898"/><use xlink:href="#g53" x="10461"/><use xlink:href="#g44" x="11237"/><use xlink:href="#g56" x="11534"/><use xlink:href="#g42" x="12097"/><use xlink:href="#g42" x="12854"/><use xlink:href="#g61" x="13402"/><use xlink:href="#g50" x="13906"/><use xlink:href="#g53" x="14131"/><use xlink:href="#g42" x="14698"/><use xlink:href="#g48" x="15246"/><use xlink:href="#g43" x="15809"/><use xlink:href="#g42" x="16328"/><use xlink:href="#g40" x="17085"/><use xlink:href="#g62" x="17655"/><use xlink:href="#g56" x="18144"/><use xlink:href="#g40" x="18707"/><use xlink:href="#g46" x="19272"/><use xlink:href="#g44" x="20204"/><use xlink:href="#g56" x="20501"/><use xlink:href="#g42" x="21064"/><use xlink:href="#g52" x="21612"/><use xlink:href="#g46" x="22325"/><use xlink:href="#g42" x="23043"/><use xlink:href="#g49" x="23591"/><use xlink:href="#g42" x="23913"/></g><g transform="translate(460.00 227.00) scale(0.01450)" fill="#a3afbb"><use xlink:href="#g55" x="0"/><use xlink:href="#g49" x="567"/><use xlink:href="#g40" x="889"/><use xlink:href="#g53" x="1459"/><use xlink:href="#g63" x="2026"/><use xlink:href="#g43" x="2588"/><use xlink:href="#g42" x="3107"/><use xlink:href="#g53" x="3655"/><use xlink:href="#g64" x="4222"/></g><g transform="translate(44.00 277.00) scale(0.01100)" fill="#7a8794"><use xlink:href="#g14" x="0"/><use xlink:href="#g9" x="1001"/><use xlink:href="#g65" x="2169"/><use xlink:href="#g11" x="3265"/><use xlink:href="#g66" x="4336"/><use xlink:href="#g6" x="5432"/><use xlink:href="#g2" x="6917"/><use xlink:href="#g9" x="7859"/><use xlink:href="#g0" x="9496"/><use xlink:href="#g1" x="10540"/><use xlink:href="#g2" x="11465"/><use xlink:href="#g1" x="12297"/><use xlink:href="#g14" x="13357"/><use xlink:href="#g6" x="14358"/><use xlink:href="#g2" x="15374"/></g><rect x="24.5" y="295.5" width="831" height="129" rx="10" fill="#080b0e" stroke="#232c37"/><g transform="translate(44.00 319.00) scale(0.01000)" fill="#7a8794"><use xlink:href="#g67" x="0"/><use xlink:href="#g68" x="652"/></g><path d="M49.0 335.5H162.7" stroke="url(#lead)"/><circle cx="49.0" cy="335.5" r="9" fill="#72aaff" fill-opacity=".14"/><circle cx="49.0" cy="335.5" r="5.5" fill="#72aaff"/><g transform="translate(44.00 365.00) scale(0.01350)" fill="#e8edf2"><use xlink:href="#g69" x="0"/><use xlink:href="#g70" x="757"/><use xlink:href="#g71" x="1362"/><use xlink:href="#g71" x="1984"/><use xlink:href="#g72" x="2606"/><use xlink:href="#g73" x="3167"/><use xlink:href="#g75" x="3976"/></g><g transform="translate(44.00 384.00) scale(0.01350)" fill="#e8edf2"><use xlink:href="#g76" x="0"/><use xlink:href="#g75" x="575"/><use xlink:href="#g77" x="1160"/><use xlink:href="#g75" x="1496"/><use xlink:href="#g78" x="2081"/><use xlink:href="#g71" x="2337"/><use xlink:href="#g79" x="2959"/><use xlink:href="#g73" x="3572"/><use xlink:href="#g80" x="4162"/></g><g transform="translate(44.00 403.00) scale(0.01350)" fill="#e8edf2"><use xlink:href="#g72" x="0"/><use xlink:href="#g71" x="561"/><use xlink:href="#g81" x="1183"/><use xlink:href="#g82" x="1787"/><use xlink:href="#g76" x="2150"/><use xlink:href="#g73" x="2725"/></g><rect x="163.7" y="296.0" width="137.7" height="128" fill="url(#gatewash)"/><path d="M163.167 296V424" stroke="#19202a"/><g transform="translate(182.67 319.00) scale(0.01000)" fill="#7a8794"><use xlink:href="#g67" x="0"/><use xlink:href="#g83" x="652"/></g><path d="M163.7 335.5H301.3" stroke="#35414e"/><rect x="181.7" y="325.0" width="12" height="21" rx="3" fill="#72aaff" fill-opacity=".16"/><rect x="185.7" y="327.0" width="4" height="17" rx="2" fill="#72aaff"/><rect x="214.5" y="307.5" width="73.3" height="16" rx="3" fill="none" stroke="#72aaff" stroke-opacity=".5"/><g transform="translate(218.99 318.50) scale(0.00800)" fill="#72aaff"><use xlink:href="#g84" x="0"/><use xlink:href="#g85" x="942"/><use xlink:href="#g86" x="1930"/><use xlink:href="#g87" x="2796"/><use xlink:href="#g88" x="3801"/><use xlink:href="#g89" x="4854"/><use xlink:href="#g90" x="5820"/><use xlink:href="#g86" x="6253"/><use xlink:href="#g91" x="7099"/></g><g transform="translate(182.67 365.00) scale(0.01350)" fill="#e8edf2"><use xlink:href="#g92" x="0"/><use xlink:href="#g75" x="688"/><use xlink:href="#g72" x="1273"/><use xlink:href="#g72" x="1834"/><use xlink:href="#g77" x="2614"/><use xlink:href="#g70" x="2950"/><use xlink:href="#g73" x="3555"/><use xlink:href="#g93" x="4364"/><use xlink:href="#g71" x="4978"/><use xlink:href="#g78" x="5600"/><use xlink:href="#g94" x="5856"/><use xlink:href="#g76" x="6112"/><use xlink:href="#g95" x="6687"/></g><g transform="translate(182.67 384.00) scale(0.01350)" fill="#e8edf2"><use xlink:href="#g75" x="0"/><use xlink:href="#g96" x="585"/><use xlink:href="#g80" x="1190"/><use xlink:href="#g73" x="2023"/><use xlink:href="#g79" x="2613"/><use xlink:href="#g82" x="3226"/><use xlink:href="#g73" x="3589"/><use xlink:href="#g72" x="4179"/><use xlink:href="#g72" x="4740"/></g><g transform="translate(182.67 403.00) scale(0.01350)" fill="#e8edf2"><use xlink:href="#g79" x="0"/><use xlink:href="#g75" x="613"/><use xlink:href="#g77" x="1198"/><use xlink:href="#g73" x="1534"/></g><path d="M301.833 296V424" stroke="#19202a"/><g transform="translate(321.33 319.00) scale(0.01000)" fill="#7a8794"><use xlink:href="#g67" x="0"/><use xlink:href="#g97" x="652"/></g><path d="M302.3 335.5H440.0" stroke="#35414e"/><circle cx="326.3" cy="335.5" r="5" fill="#080b0e" stroke="#72aaff" stroke-width="1.5"/><g transform="translate(321.33 365.00) scale(0.01350)" fill="#e8edf2"><use xlink:href="#g69" x="0"/><use xlink:href="#g82" x="757"/><use xlink:href="#g75" x="1120"/><use xlink:href="#g98" x="1705"/><use xlink:href="#g78" x="2497"/><use xlink:href="#g99" x="2753"/><use xlink:href="#g100" x="3274"/><use xlink:href="#g73" x="3595"/><use xlink:href="#g77" x="4185"/><use xlink:href="#g76" x="4521"/><use xlink:href="#g70" x="5096"/><use xlink:href="#g99" x="5701"/><use xlink:href="#g71" x="6222"/><use xlink:href="#g82" x="6844"/></g><g transform="translate(321.33 384.00) scale(0.01350)" fill="#e8edf2"><use xlink:href="#g82" x="0"/><use xlink:href="#g73" x="363"/><use xlink:href="#g96" x="953"/><use xlink:href="#g80" x="1558"/><use xlink:href="#g73" x="2172"/><use xlink:href="#g82" x="2762"/></g><path d="M440.5 296V424" stroke="#19202a"/><g transform="translate(460.00 319.00) scale(0.01000)" fill="#7a8794"><use xlink:href="#g67" x="0"/><use xlink:href="#g101" x="652"/></g><path d="M441.0 335.5H578.7" stroke="#35414e"/><circle cx="465.0" cy="335.5" r="5" fill="#080b0e" stroke="#72aaff" stroke-width="1.5"/><g transform="translate(460.00 365.00) scale(0.01350)" fill="#e8edf2"><use xlink:href="#g69" x="0"/><use xlink:href="#g78" x="757"/><use xlink:href="#g75" x="1013"/><use xlink:href="#g72" x="1598"/><use xlink:href="#g72" x="2159"/><use xlink:href="#g94" x="2720"/><use xlink:href="#g100" x="2976"/><use xlink:href="#g95" x="3303"/><use xlink:href="#g75" x="4071"/><use xlink:href="#g96" x="4656"/><use xlink:href="#g80" x="5261"/></g><g transform="translate(460.00 384.00) scale(0.01350)" fill="#e8edf2"><use xlink:href="#g72" x="0"/><use xlink:href="#g77" x="561"/><use xlink:href="#g71" x="897"/><use xlink:href="#g82" x="1519"/><use xlink:href="#g73" x="1882"/><use xlink:href="#g75" x="2691"/><use xlink:href="#g82" x="3276"/><use xlink:href="#g77" x="3650"/><use xlink:href="#g94" x="3986"/><use xlink:href="#g100" x="4242"/><use xlink:href="#g75" x="4563"/><use xlink:href="#g76" x="5148"/><use xlink:href="#g77" x="5723"/><use xlink:href="#g72" x="6058"/></g><path d="M579.167 296V424" stroke="#19202a"/><g transform="translate(598.67 319.00) scale(0.01000)" fill="#7a8794"><use xlink:href="#g67" x="0"/><use xlink:href="#g102" x="652"/></g><path d="M579.7 335.5H717.3" stroke="#35414e"/><circle cx="603.7" cy="335.5" r="5" fill="#080b0e" stroke="#72aaff" stroke-width="1.5"/><g transform="translate(598.67 365.00) scale(0.01350)" fill="#e8edf2"><use xlink:href="#g92" x="0"/><use xlink:href="#g81" x="700"/><use xlink:href="#g103" x="1304"/><use xlink:href="#g78" x="1918"/><use xlink:href="#g94" x="2174"/><use xlink:href="#g72" x="2430"/><use xlink:href="#g70" x="2991"/><use xlink:href="#g75" x="3815"/></g><g transform="translate(598.67 384.00) scale(0.01350)" fill="#e8edf2"><use xlink:href="#g80" x="0"/><use xlink:href="#g75" x="614"/><use xlink:href="#g77" x="1199"/><use xlink:href="#g75" x="1535"/><use xlink:href="#g72" x="2120"/><use xlink:href="#g73" x="2681"/><use xlink:href="#g77" x="3271"/><use xlink:href="#g104" x="3826"/><use xlink:href="#g73" x="4375"/><use xlink:href="#g82" x="4965"/><use xlink:href="#g72" x="5339"/><use xlink:href="#g94" x="5900"/><use xlink:href="#g71" x="6156"/><use xlink:href="#g96" x="6778"/></g><path d="M717.833 296V424" stroke="#19202a"/><g transform="translate(737.33 319.00) scale(0.01000)" fill="#7a8794"><use xlink:href="#g67" x="0"/><use xlink:href="#g105" x="652"/></g><path d="M718.3 335.5H856.0" stroke="#35414e"/><circle cx="742.3" cy="335.5" r="5" fill="#080b0e" stroke="#72aaff" stroke-width="1.5"/><g transform="translate(737.33 365.00) scale(0.01350)" fill="#e8edf2"><use xlink:href="#g106" x="0"/><use xlink:href="#g73" x="696"/><use xlink:href="#g75" x="1286"/><use xlink:href="#g82" x="1871"/><use xlink:href="#g76" x="2234"/><use xlink:href="#g70" x="2809"/><use xlink:href="#g75" x="3633"/><use xlink:href="#g96" x="4218"/><use xlink:href="#g80" x="4823"/></g><g transform="translate(737.33 384.00) scale(0.01350)" fill="#e8edf2"><use xlink:href="#g100" x="0"/><use xlink:href="#g73" x="321"/><use xlink:href="#g77" x="911"/><use xlink:href="#g76" x="1247"/><use xlink:href="#g70" x="1822"/><use xlink:href="#g82" x="2646"/><use xlink:href="#g73" x="3009"/><use xlink:href="#g76" x="3599"/><use xlink:href="#g71" x="4174"/><use xlink:href="#g82" x="4796"/><use xlink:href="#g80" x="5159"/><use xlink:href="#g72" x="5773"/></g><path d="M44.5 449.0v13" stroke="#35414e"/><g transform="translate(54.00 459.00) scale(0.01250)" fill="#a3afbb"><use xlink:href="#g107" x="0"/><use xlink:href="#g63" x="847"/><use xlink:href="#g41" x="1409"/><use xlink:href="#g44" x="1634"/><use xlink:href="#g50" x="1931"/><use xlink:href="#g108" x="2156"/><use xlink:href="#g42" x="2489"/><use xlink:href="#g48" x="3037"/><use xlink:href="#g109" x="3600"/><use xlink:href="#g50" x="4156"/><use xlink:href="#g48" x="4381"/><use xlink:href="#g42" x="4944"/><use xlink:href="#g42" x="5701"/><use xlink:href="#g110" x="6246"/><use xlink:href="#g42" x="6739"/><use xlink:href="#g43" x="7287"/><use xlink:href="#g63" x="7806"/><use xlink:href="#g44" x="8368"/><use xlink:href="#g50" x="8665"/><use xlink:href="#g40" x="8890"/><use xlink:href="#g48" x="9460"/></g><path d="M321.8 449.0v13" stroke="#35414e"/><g transform="translate(331.33 459.00) scale(0.01250)" fill="#a3afbb"><use xlink:href="#g111" x="0"/><use xlink:href="#g49" x="698"/><use xlink:href="#g40" x="1020"/><use xlink:href="#g46" x="1585"/><use xlink:href="#g57" x="2308"/><use xlink:href="#g42" x="2818"/><use xlink:href="#g49" x="3366"/><use xlink:href="#g49" x="3887"/><use xlink:href="#g42" x="4209"/><use xlink:href="#g48" x="4757"/><use xlink:href="#g53" x="5320"/><use xlink:href="#g42" x="5887"/><use xlink:href="#g49" x="6435"/><use xlink:href="#g50" x="6767"/><use xlink:href="#g48" x="6992"/><use xlink:href="#g109" x="7555"/></g><path d="M599.2 449.0v13" stroke="#35414e"/><g transform="translate(608.67 459.00) scale(0.01250)" fill="#a3afbb"><use xlink:href="#g112" x="0"/><use xlink:href="#g49" x="682"/><use xlink:href="#g44" x="1014"/><use xlink:href="#g50" x="1311"/><use xlink:href="#g62" x="1536"/><use xlink:href="#g51" x="1811"/><use xlink:href="#g43" x="2356"/><use xlink:href="#g44" x="2875"/><use xlink:href="#g57" x="3172"/><use xlink:href="#g51" x="3891"/><use xlink:href="#g48" x="4436"/><use xlink:href="#g53" x="4999"/><use xlink:href="#g113" x="5775"/><use xlink:href="#g42" x="6635"/><use xlink:href="#g53" x="7183"/><use xlink:href="#g50" x="7750"/><use xlink:href="#g51" x="7975"/></g><path d="M44.5 475.0v13" stroke="#35414e"/><g transform="translate(54.00 485.00) scale(0.01250)" fill="#a3afbb"><use xlink:href="#g114" x="0"/><use xlink:href="#g40" x="559"/><use xlink:href="#g47" x="1129"/><use xlink:href="#g57" x="1696"/><use xlink:href="#g51" x="2415"/><use xlink:href="#g48" x="2960"/><use xlink:href="#g53" x="3523"/><use xlink:href="#g42" x="4299"/><use xlink:href="#g61" x="4847"/><use xlink:href="#g50" x="5351"/><use xlink:href="#g53" x="5576"/><use xlink:href="#g42" x="6143"/><use xlink:href="#g48" x="6691"/><use xlink:href="#g43" x="7254"/><use xlink:href="#g42" x="7773"/></g><path d="M321.8 475.0v13" stroke="#35414e"/><g transform="translate(331.33 485.00) scale(0.01250)" fill="#a3afbb"><use xlink:href="#g115" x="0"/><use xlink:href="#g42" x="603"/><use xlink:href="#g49" x="1151"/><use xlink:href="#g57" x="1483"/><use xlink:href="#g50" x="1993"/><use xlink:href="#g40" x="2218"/><use xlink:href="#g48" x="2788"/><use xlink:href="#g42" x="3351"/><use xlink:href="#g53" x="3899"/><use xlink:href="#g53" x="4675"/><use xlink:href="#g51" x="5242"/><use xlink:href="#g44" x="5787"/><use xlink:href="#g51" x="6084"/><use xlink:href="#g57" x="6629"/><use xlink:href="#g42" x="7139"/><use xlink:href="#g44" x="7687"/><use xlink:href="#g57" x="7984"/></g><path d="M599.2 475.0v13" stroke="#35414e"/><g transform="translate(608.67 485.00) scale(0.01250)" fill="#a3afbb"><use xlink:href="#g116" x="0"/><use xlink:href="#g40" x="560"/><use xlink:href="#g63" x="1130"/><use xlink:href="#g49" x="1692"/><use xlink:href="#g55" x="2213"/><use xlink:href="#g49" x="2780"/><use xlink:href="#g40" x="3102"/><use xlink:href="#g110" x="3652"/><use xlink:href="#g50" x="4165"/><use xlink:href="#g42" x="4390"/><use xlink:href="#g57" x="4938"/><use xlink:href="#g60" x="5448"/><use xlink:href="#g42" x="5934"/><use xlink:href="#g110" x="6479"/><use xlink:href="#g55" x="6992"/><use xlink:href="#g41" x="7559"/><use xlink:href="#g50" x="7784"/><use xlink:href="#g43" x="8009"/><use xlink:href="#g50" x="8528"/><use xlink:href="#g44" x="8753"/><use xlink:href="#g42" x="9259"/><use xlink:href="#g109" x="9807"/><use xlink:href="#g49" x="10363"/><use xlink:href="#g42" x="10685"/><use xlink:href="#g57" x="11233"/><use xlink:href="#g57" x="11743"/></g></svg>
